HIERARCHY
ROOT hip
{
	OFFSET 0.000000 0.000000 0.000000 
	CHANNELS 6 Xposition Yposition Zposition Xrotation Zrotation Yrotation
	JOINT abdomen
	{
		OFFSET 0.000000 3.402643 0.000000 
		CHANNELS 3 Xrotation Zrotation Yrotation
		JOINT chest
		{
			OFFSET 0.000000 8.438565 -0.680529 
			CHANNELS 3 Xrotation Zrotation Yrotation
			JOINT neck
			{
				OFFSET 0.000000 10.207942 -0.272212 
				CHANNELS 3 Xrotation Zrotation Yrotation
				JOINT head
				{
					OFFSET 0.000000 3.130431 0.000000 
					CHANNELS 3 Xrotation Zrotation Yrotation
					End Site
					{
						OFFSET 0.000000 3.130435 0.000000 
					}
				}
			}
			JOINT lCollar
			{
				OFFSET 3.470700 6.669187 -0.816635 
				CHANNELS 3 Yrotation Zrotation Xrotation
				JOINT lShldr
				{
					OFFSET 3.198488 0.000000 0.000000 
					CHANNELS 3 Zrotation Yrotation Xrotation
					JOINT lForeArm
					{
						OFFSET 10.139888 0.000000 0.000000 
						CHANNELS 3 Yrotation Zrotation Xrotation
						JOINT lHand
						{
							OFFSET 8.370511 0.000000 0.000000 
							CHANNELS 3 Zrotation Yrotation Xrotation
							End Site
							{
								OFFSET 4.083176 0.000000 0.000000 
							}
						}
					}
				}
			}
			JOINT rCollar
			{
				OFFSET -3.470700 6.669187 -0.816635 
				CHANNELS 3 Yrotation Zrotation Xrotation
				JOINT rShldr
				{
					OFFSET -3.198488 0.000000 0.000000 
					CHANNELS 3 Zrotation Yrotation Xrotation
					JOINT rForeArm
					{
						OFFSET -10.139888 0.000000 0.000000 
						CHANNELS 3 Yrotation Zrotation Xrotation
						JOINT rHand
						{
							OFFSET -8.370511 0.000000 0.000000 
							CHANNELS 3 Zrotation Yrotation Xrotation
							End Site
							{
								OFFSET -4.083176 0.000000 0.000000 
							}
						}
					}
				}
			}
		}
	}
	JOINT lThigh
	{
		OFFSET 5.308129 -1.633274 1.361059 
		CHANNELS 3 Xrotation Zrotation Yrotation
		JOINT lShin
		{
			OFFSET -2.041588 -20.007561 0.000000 
			CHANNELS 3 Xrotation Zrotation Yrotation
			JOINT lFoot
			{
				OFFSET 0.000000 -19.190928 -1.224953 
				CHANNELS 3 Xrotation Yrotation Zrotation
				End Site
				{
					OFFSET 0.000000 -2.449906 4.627600 
				}
			}
		}
	}
	JOINT rThigh
	{
		OFFSET -5.308129 -1.633274 1.361059 
		CHANNELS 3 Xrotation Zrotation Yrotation
		JOINT rShin
		{
			OFFSET 2.041588 -20.007561 0.000000 
			CHANNELS 3 Xrotation Zrotation Yrotation
			JOINT rFoot
			{
				OFFSET 0.000000 -19.190928 -1.224953 
				CHANNELS 3 Xrotation Yrotation Zrotation
				End Site
				{
					OFFSET 0.000000 -2.449906 4.627600 
				}
			}
		}
	}
}
MOTION
Frames: 18
Frame Time: 0.016667
-12.322957 53.645714 -55.000278 -13.290531 -1.556213 8.196150 29.626551 4.157648 -1.021093 2.324491 4.297354 -5.673967 8.201485 2.228800 0.305143 25.315718 -2.847104 -3.207413 -9.043938 -8.340941 -0.431541 -68.540276 8.331770 -19.311123 -25.472862 -5.000000 35.804348 -16.012823 -7.681295 14.165253 7.437015 11.929750 -0.624010 63.352280 -10.705655 -24.019819 28.824461 5.000000 25.849077 17.304895 -12.875210 -8.934723 20.277470 11.344286 -4.885451 28.153042 -7.368759 -4.450331 -25.171904 6.295980 -3.580991 11.228018 -0.067431 9.198115 2.538838 4.888940 0.389470 -0.534299 -15.141310 2.788972 
-12.105325 53.676483 -55.319065 -13.086163 -1.226244 8.615265 29.398579 3.949317 -1.321909 2.231055 4.238259 -5.859894 8.057293 2.369809 0.323690 25.274544 -2.787968 -3.432222 -9.041524 -8.019115 -0.413549 -69.044273 8.342799 -19.322786 -24.556137 -5.000000 36.390968 -16.178474 -7.677935 14.522573 7.181595 11.793221 -0.616944 63.705353 -10.946820 -24.331715 28.246788 5.000000 26.025948 17.258783 -12.890756 -8.857576 21.354984 10.535152 -5.013881 25.201656 -6.904220 -3.642990 -25.184502 6.538045 -3.432392 10.642361 -0.575217 8.593599 2.840086 4.730984 0.442097 0.026140 -15.059001 3.298263 
-11.892970 53.700653 -55.670841 -12.810461 -0.974199 8.995320 29.203621 3.812631 -1.540377 2.148360 4.179210 -6.016546 7.842718 2.418087 0.316393 25.170761 -2.709472 -3.607792 -9.029924 -7.765553 -0.400481 -69.444763 8.358983 -19.321804 -23.819578 -5.000000 36.844978 -16.328857 -7.573818 14.754667 6.945831 11.666446 -0.610379 64.016220 -11.179743 -24.618214 27.729668 5.000000 26.202198 17.166851 -12.884948 -8.869545 22.053802 9.820127 -5.345993 22.686235 -6.531967 -3.087591 -24.777700 6.786849 -3.107690 9.880125 -1.053448 8.065500 3.184163 4.636848 0.469058 0.544247 -15.002403 3.791067 
-11.684135 53.720425 -56.044609 -12.470494 -0.770901 9.336662 29.010347 3.714439 -1.721402 2.087546 4.110520 -6.133478 7.559108 2.416630 0.306745 25.035213 -2.621325 -3.754110 -9.009024 -7.570505 -0.390423 -69.777794 8.363979 -19.304041 -23.210093 -5.000000 37.207569 -16.470638 -7.421770 14.892653 6.729614 11.539667 -0.603812 64.304733 -11.410068 -24.884781 27.257034 5.000000 26.372608 17.046637 -12.858773 -8.929221 22.528481 9.159316 -5.815643 20.398603 -6.201589 -2.635708 -24.029408 6.981840 -2.739615 9.007877 -1.511651 7.608640 3.545465 4.541284 0.457144 1.081598 -14.924042 4.260706 
-11.476179 53.736237 -56.428055 -12.119694 -0.577649 9.648927 28.857632 3.638031 -1.880921 2.018580 4.041938 -6.221173 7.265683 2.405517 0.298556 24.870150 -2.542962 -3.890685 -8.988292 -7.394963 -0.381367 -70.065598 8.388901 -19.288990 -22.658155 -5.000000 37.537132 -16.584553 -7.303357 15.004581 6.532945 11.412891 -0.595308 64.570923 -11.638274 -25.134871 26.793585 5.000000 26.575821 16.918644 -12.831609 -8.996003 22.874178 8.512210 -6.334660 18.251499 -5.899210 -2.215906 -23.243313 7.210195 -2.344996 8.115344 -1.992001 7.164792 3.925240 4.480093 0.475185 1.537892 -14.879107 4.707320 
-11.271743 53.736217 -56.850174 -11.704322 -0.423361 9.843983 28.794367 3.583646 -2.038825 1.947531 3.964120 -6.201014 6.902907 2.352865 0.276507 24.588051 -2.484153 -4.007757 -8.938807 -7.297438 -0.376334 -70.207863 8.438904 -19.295275 -22.306204 -5.000000 37.786144 -16.620195 -7.298829 14.989739 6.395296 11.325122 -0.590772 64.787216 -11.837906 -25.366213 26.368219 5.000000 26.884232 16.782867 -12.803549 -9.069921 22.895716 7.936971 -7.036838 16.480322 -5.712609 -1.934486 -22.405922 7.453327 -1.883308 7.037976 -2.498572 6.794630 4.372830 4.450128 0.528710 1.861645 -14.749011 5.125703 
-11.067306 53.736198 -57.272297 -11.279837 -0.278867 10.039181 28.742556 3.530345 -2.173967 1.875763 3.886250 -6.180847 6.540137 2.290558 0.256325 24.295532 -2.425379 -4.115078 -8.889334 -7.199914 -0.371300 -70.350128 8.488930 -19.300489 -21.955866 -5.000000 38.034740 -16.657106 -7.306256 14.969300 6.267318 11.227601 -0.585731 65.003029 -12.045046 -25.595156 25.944036 5.000000 27.195698 16.647078 -12.775946 -9.144048 22.919968 7.343661 -7.702636 14.720596 -5.525389 -1.660197 -21.543776 7.762815 -1.399626 5.959317 -2.993039 6.454783 4.824408 4.431630 0.583031 2.157650 -14.724029 5.469675 
-10.873423 53.716831 -57.722549 -10.815170 -0.134568 10.175797 28.756664 3.490166 -2.337419 1.865066 3.828140 -6.132179 6.107645 2.146629 0.218874 23.923368 -2.376501 -4.173618 -8.752359 -7.160905 -0.369287 -70.406090 8.544917 -19.365690 -21.774574 -5.000000 38.179283 -16.681580 -7.293139 14.803039 6.248682 11.129017 -0.590213 65.166824 -12.178010 -25.762228 25.498007 5.000000 27.648825 16.630270 -12.673154 -9.151095 22.695606 6.825983 -8.374089 13.280059 -5.399876 -1.483187 -20.962070 7.937892 -1.019671 4.821098 -3.532274 6.167106 5.283214 4.442470 0.589262 2.323689 -14.581672 5.831416 
-10.682178 53.692623 -58.179832 -10.340051 0.009608 10.302736 28.770037 3.454535 -2.509834 1.854228 3.770014 -6.082856 5.655792 1.983385 0.184329 23.530771 -2.327686 -4.212644 -8.595919 -7.131647 -0.367776 -70.444550 8.592172 -19.443808 -21.649483 -5.000000 38.288078 -16.708616 -7.279855 14.595923 6.257526 11.041246 -0.585675 65.325264 -12.280330 -25.910294 25.051672 5.000000 28.134691 16.639393 -12.559186 -9.152940 22.408157 6.325963 -9.027074 11.916089 -5.310379 -1.349460 -20.406176 8.106013 -0.678423 3.619156 -4.095352 5.924757 5.761153 4.489170 0.597485 2.525342 -14.430497 6.148010 
-10.495332 53.661385 -58.643257 -9.851138 0.172904 10.380930 28.835604 3.390604 -2.641306 1.873222 3.702131 -6.004242 5.204560 1.840909 0.156192 23.111382 -2.308062 -4.261432 -8.468839 -7.112143 -0.366769 -70.449287 8.652990 -19.548265 -21.567326 -5.000000 38.355503 -16.704941 -7.294529 14.351646 6.244968 10.954542 -0.571605 65.490219 -12.331477 -26.017214 24.610056 5.000000 28.639307 16.692642 -12.513698 -9.038391 22.079020 5.819706 -9.597427 10.652845 -5.244421 -1.207657 -19.861826 8.184926 -0.393023 2.450607 -4.675029 5.733987 6.175091 4.525200 0.611695 2.694591 -14.259429 6.455386 
-10.315082 53.619610 -59.115906 -9.368485 0.355414 10.381083 28.953568 3.281226 -2.738124 1.931257 3.604876 -5.886516 4.773400 1.728859 0.133654 22.655891 -2.317593 -4.329735 -8.400352 -7.092638 -0.365762 -70.403000 8.728218 -19.686949 -21.554350 -5.000000 38.349804 -16.634613 -7.331201 14.040480 6.224547 10.866773 -0.567062 65.662651 -12.311408 -26.045799 24.179321 5.000000 29.171612 16.822514 -12.597847 -8.760766 21.641878 5.299770 -10.063214 9.551423 -5.247297 -1.076985 -19.392714 8.278328 -0.128118 1.257996 -5.293186 5.610489 6.580812 4.577985 0.674050 2.858826 -14.131534 6.715972 
-10.134829 53.577835 -59.588551 -8.874398 0.547546 10.371641 29.063107 3.158718 -2.829042 1.989757 3.507651 -5.759056 4.342359 1.616807 0.111112 22.189909 -2.317382 -4.398433 -8.331930 -7.082886 -0.365258 -70.367447 8.794497 -19.839417 -21.541368 -5.000000 38.347485 -16.565569 -7.364548 13.738494 6.194368 10.779003 -0.562518 65.842033 -12.283000 -26.069967 23.749376 5.000000 29.702757 16.950630 -12.674331 -8.481101 21.211214 4.765139 -10.499494 8.441751 -5.249832 -0.964099 -18.893780 8.429746 0.166690 0.068991 -5.926978 5.518230 6.961428 4.625963 0.715549 3.017991 -14.003811 6.955913 
-9.969969 53.536079 -60.052387 -8.371536 0.845492 10.313670 29.224262 2.909353 -2.995225 2.069244 3.430093 -5.641460 3.980080 1.525526 0.095297 21.773384 -2.356298 -4.408195 -8.264836 -7.091234 -0.375352 -70.282501 8.860759 -20.043087 -21.473454 -5.000000 38.290955 -16.451658 -7.378875 13.422760 6.205486 10.729187 -0.569531 66.005676 -12.158844 -26.080139 23.366003 5.000000 30.275166 17.123131 -12.922902 -7.986981 20.705879 4.157308 -10.786409 7.513402 -5.289671 -0.907610 -18.352253 8.459885 0.385758 -1.004708 -6.618425 5.409450 7.132490 4.630824 0.768553 3.424663 -13.781598 7.207363 
-9.805111 53.494324 -60.516224 -7.867538 1.153156 10.256129 29.407059 2.648194 -3.155443 2.158231 3.352508 -5.523296 3.617870 1.434245 0.079480 21.346357 -2.385477 -4.417953 -8.206373 -7.110749 -0.376360 -70.198135 8.918549 -20.251410 -21.416857 -5.000000 38.219273 -16.348839 -7.387237 13.118738 6.224425 10.670670 -0.566502 66.160263 -12.039021 -26.089869 22.973993 5.000000 30.851753 17.289291 -13.169192 -7.481278 20.190344 3.553132 -11.036454 6.591424 -5.343682 -0.851049 -17.819868 8.493773 0.638594 -2.107187 -7.329121 5.352076 7.302256 4.674175 0.783548 3.877147 -13.567257 7.471616 
-9.650805 53.467087 -60.965530 -7.394934 1.451276 10.208447 29.590660 2.398867 -3.321318 2.255546 3.284607 -5.406261 3.343861 1.354078 0.071853 20.978346 -2.414623 -4.437879 -8.147974 -7.140016 -0.377872 -70.115631 8.971191 -20.470501 -21.284962 -5.000000 38.157440 -16.242819 -7.383247 12.859873 6.232265 10.661978 -0.556456 66.286575 -11.910343 -26.092209 22.636555 5.000000 31.382881 17.458414 -13.488914 -6.949008 19.670870 2.947195 -11.300086 5.738715 -5.428919 -0.791627 -17.209686 8.568649 0.963673 -3.064318 -7.983892 5.232012 7.263262 4.625603 0.788024 4.600816 -13.322125 7.714762 
-9.503533 53.449524 -61.405167 -6.928843 1.768656 10.171068 29.785772 2.132203 -3.495222 2.351553 3.216619 -5.288632 3.108972 1.293223 0.061306 20.638893 -2.434032 -4.457395 -8.109240 -7.188784 -0.380389 -70.024544 9.009689 -20.696140 -21.123365 -5.000000 38.091892 -16.144058 -7.376850 12.641870 6.242223 10.681481 -0.557467 66.395195 -11.781366 -26.094048 22.324617 5.000000 31.878729 17.604914 -13.856886 -6.378347 19.142725 2.380342 -11.568213 4.881266 -5.525795 -0.720632 -16.527344 8.594374 1.307258 -3.921726 -8.635368 5.093693 7.040311 4.558258 0.728504 5.551748 -13.035495 7.945072 
-9.360221 53.437679 -61.836891 -6.479808 2.047658 10.133678 29.980640 1.887793 -3.671747 2.446810 3.158364 -5.180777 2.903403 1.222713 0.052217 20.328749 -2.453439 -4.476909 -8.070574 -7.247304 -0.383409 -69.952576 9.051211 -20.921377 -20.917408 -5.000000 38.052319 -16.044216 -7.331313 12.452601 6.261852 10.691236 -0.557972 66.500595 -11.668350 -26.121782 22.038574 5.000000 32.373722 17.763254 -14.217744 -5.879462 18.619555 1.824781 -11.838645 4.061200 -5.632700 -0.642047 -15.853615 8.668967 1.654670 -4.743921 -9.244808 4.945508 6.758272 4.490448 0.675216 6.559898 -12.776019 8.186441 
-9.232735 53.448700 -62.236942 -6.056703 2.240263 10.085994 30.114935 1.724499 -3.720545 2.551741 3.090316 -5.131510 2.805276 1.132890 0.046047 20.101368 -2.434064 -4.447637 -8.051575 -7.325328 -0.387435 -69.878593 9.095870 -21.123417 -20.598938 -5.000000 38.057362 -15.976062 -7.176659 12.381919 6.301302 10.730244 -0.559993 66.584412 -11.623156 -26.250486 21.866293 5.000000 32.801563 17.963753 -14.585398 -5.605225 18.109676 1.394909 -12.057097 3.311277 -5.712680 -0.588134 -15.148401 8.744965 1.898856 -5.397844 -9.693835 4.767056 6.119381 4.351166 0.601027 8.032610 -12.524872 8.426688 
